<?xml version="1.0" encoding="UTF-8" standalone="no"?>
<!DOCTYPE svg PUBLIC "-//W3C//DTD SVG 1.1//EN" "http://www.w3.org/Graphics/SVG/1.1/DTD/svg11.dtd">
<svg width="100%" height="100%" viewBox="0 0 945 451" version="1.1" xmlns="http://www.w3.org/2000/svg" xmlns:xlink="http://www.w3.org/1999/xlink" xml:space="preserve" xmlns:serif="http://www.serif.com/" style="fill-rule:evenodd;clip-rule:evenodd;stroke-linejoin:round;stroke-miterlimit:2;">
    <g transform="matrix(1,0,0,1,-628.617,-1251.4)">
        <g id="T" transform="matrix(1,0,0,1,-134.902,-33)">
            <path d="M1259.03,1700.11L1235.36,1699.13L1237.55,1646.51L1237.63,1589.53L1189.44,1590.09C1189.44,1590.09 1188.43,1555.38 1189.39,1547.68C1189.63,1545.75 1191.76,1545.27 1193.71,1545.25C1213.33,1545.03 1285.22,1544.78 1306.16,1545.36C1308.16,1545.42 1310.88,1546.98 1311.09,1548.98C1311.81,1555.78 1311.37,1579.19 1310.84,1585.87C1310.73,1587.29 1309.37,1588.92 1307.94,1589.03C1299.43,1589.67 1259.47,1589.59 1259.47,1589.59L1258.39,1651.75L1259.03,1700.11Z" style="fill:rgb(255,203,27);"/>
        </g>
        <g id="A" transform="matrix(1,0,0,1,-134.902,-33)">
            <path d="M1331.24,1699.98L1321.56,1700.02C1321.56,1700.02 1322.17,1697.24 1322.64,1695.61C1328.07,1676.86 1355.71,1588.2 1355.71,1588.2C1355.71,1588.2 1369.45,1550.2 1373.26,1542.46C1374.01,1540.95 1378.15,1540.8 1378.84,1542.34C1383.64,1553.07 1402.34,1605.59 1402.34,1605.59L1432.71,1682.07L1440.26,1699.25L1421.4,1699.04L1414.35,1676.23L1402.08,1645.48L1346.83,1645.17L1334.41,1687.18L1331.24,1699.98ZM1396.29,1631.43L1348.74,1632.27C1348.74,1632.27 1369.25,1558.52 1371.7,1561.25C1375.34,1565.3 1396.29,1631.43 1396.29,1631.43Z" style="fill:rgb(255,203,27);"/>
        </g>
        <g id="A1" serif:id="A" transform="matrix(1,0,0,1,-134.902,-33)">
            <path d="M1061.03,1699.14L1042.99,1699.47C1042.99,1699.47 1093.07,1537.64 1096,1539.33C1098.76,1540.93 1128.87,1608.57 1142.79,1634.94C1154.27,1656.67 1166.68,1675.17 1178.14,1696.86C1178.63,1697.78 1179.3,1700.53 1178.17,1700.67C1174.34,1701.16 1156.78,1700.77 1156.78,1700.77L1135.05,1653.79L1072.57,1654.46L1061.03,1699.14ZM1118.24,1622.92C1114.89,1623.21 1107.36,1623.19 1099.1,1623.3C1092.43,1623.39 1085.05,1623.57 1082.31,1623.4C1081.32,1623.34 1081.31,1621.66 1081.61,1620.72C1084.05,1612.97 1094.36,1576.37 1096.99,1577.14C1100.08,1578.04 1115.05,1612.83 1118.63,1620.48C1118.99,1621.25 1119.08,1622.85 1118.24,1622.92Z" style="fill:rgb(255,203,27);"/>
        </g>
        <g id="P" transform="matrix(1,0,0,1,-134.902,-33)">
            <path d="M949.001,1699.54L916.106,1700.25L916.077,1637.18L918.246,1547.18C927.429,1546.62 936.613,1546.06 945.805,1545.68C975.203,1544.49 1027.68,1538.99 1034.77,1580.74C1039.3,1607.46 1015.54,1626.05 992.347,1632.22C983.653,1634.54 977.238,1635.21 968.336,1636.52C962.483,1637.38 956.375,1638.29 950.466,1638.01L949.001,1699.54ZM952.703,1554.86L951.388,1627.28C972.29,1627.62 995.159,1625.43 1006.36,1617.19C1010.94,1613.82 1014.09,1609.97 1015.36,1606.65C1016.85,1602.77 1018.1,1594.39 1018,1590.34C1017.85,1584.02 1017.09,1573.32 1012.13,1567.98C1002.97,1558.12 988.838,1556.17 984.335,1555.61C965.062,1553.24 961.154,1554.87 952.703,1554.86Z" style="fill:rgb(255,203,27);"/>
        </g>
        <g id="S" transform="matrix(1,0,0,1,-134.902,-33)">
            <path d="M1555.96,1562.01L1547.99,1571.19C1532.51,1561.12 1517.42,1552.97 1498.59,1557.67C1488.56,1560.17 1478.66,1564.82 1477.18,1576.39C1474.87,1594.4 1488.76,1604.71 1504,1610.19C1506.09,1610.94 1524.55,1616.03 1534.06,1622.16C1547.65,1630.92 1553.29,1642.65 1554.65,1654.15C1555.8,1663.79 1554.61,1674.65 1548.63,1682.61C1538.84,1695.64 1517.27,1699.67 1512.03,1700.54C1490.4,1704.13 1476.1,1698.91 1471.14,1696.84C1466.77,1695.02 1457.67,1691.34 1452.6,1684.52L1458.06,1677.16C1461.16,1677.99 1462.42,1680.37 1467.3,1682.84C1472.84,1685.65 1478.43,1688.64 1484.47,1690.06C1496.1,1692.8 1512.43,1690.27 1521.88,1682.59C1530.37,1675.69 1533.04,1663.12 1525.68,1654.24C1520.37,1647.85 1507.85,1642.95 1501.78,1639.95C1484.39,1631.37 1483.64,1632.51 1468.41,1619.78C1463.25,1615.47 1456.8,1609.57 1454.4,1599.73C1453.1,1594.38 1453.43,1588.67 1454.08,1583.2C1456.89,1559.53 1483.96,1546.76 1504.63,1544.88C1511.11,1544.29 1518.17,1544.32 1524.56,1545.56C1539.48,1548.47 1547.37,1554.77 1555.96,1562.01Z" style="fill:rgb(255,203,27);"/>
        </g>
        <path id="O" d="M1447.09,1438.79C1432.73,1408.04 1430.7,1370.67 1451.58,1342.3C1463.93,1325.52 1479.85,1315.28 1500.9,1313.86C1512.45,1313.08 1526.29,1314.78 1535.09,1319.77C1549.74,1328.08 1559.17,1345.38 1565.45,1360.6C1579.5,1394.64 1573.67,1440.54 1542.69,1463.85C1523.86,1478.02 1489.71,1479.19 1469.88,1466.12C1460.77,1460.12 1451.66,1448.57 1447.09,1438.79ZM1512.77,1327.47C1492.95,1322.12 1477.41,1333.6 1465.04,1347.81C1446.09,1369.58 1448.62,1401.98 1456.38,1427.7C1461.36,1444.18 1474.53,1461.53 1495.7,1463.54C1517.2,1465.58 1532.18,1458.43 1542.87,1439.33C1545.59,1434.47 1547.61,1429.2 1549.19,1423.86C1559.1,1390.45 1552.42,1338.18 1512.77,1327.47Z" style="fill:rgb(255,203,27);"/>
        <path id="Q" d="M740.995,1461.67C713.555,1482.38 668.168,1477.37 646.668,1450.23C629.908,1429.07 625.198,1401.43 630.967,1375.03C634.891,1357.07 643.004,1341.67 658.022,1330.84C690.184,1307.64 742.131,1314.65 760.03,1350.94C770.896,1372.98 769.067,1404.97 760.953,1429.74C758.891,1436.04 752.154,1450.51 752.154,1450.51L773.302,1473.09L750.577,1473.6L740.995,1461.67ZM732.537,1451.14L710.081,1423.8L728.454,1423.43L741.639,1439.7C744.597,1435.7 747.605,1431.63 749.599,1427.08C751.976,1421.64 753.518,1415.83 754.628,1410.01C757.658,1394.1 755.414,1375.91 749.786,1360.86C737.491,1327.99 697.178,1320.55 669.412,1338.45C659.446,1344.88 650.444,1353.51 645.305,1364.34C632.945,1390.37 637.584,1430.43 659.407,1450.18C672.343,1461.88 689.719,1465.37 706.723,1463.34C711.791,1462.74 716.758,1461.16 721.453,1459.16C724.848,1457.71 727.736,1455.27 730.726,1453.11C731.448,1452.58 732.001,1451.85 732.537,1451.14Z" style="fill:rgb(255,203,27);"/>
        <path id="R" d="M1310.59,1312.28C1311.28,1336.38 1311.68,1360.5 1311.73,1384.61C1311.82,1426.76 1309.36,1426.65 1311.4,1468.76L1355.28,1468.18C1353.77,1451.76 1352.07,1435.36 1350.61,1418.92C1350.38,1416.24 1350.26,1413.55 1350.2,1410.85C1350.17,1409.05 1349.88,1407.19 1350.35,1405.45C1350.58,1404.62 1351.6,1402.93 1352.16,1403.59C1357.98,1410.47 1367.32,1428.57 1371.65,1436.49C1377.5,1447.17 1383.4,1457.83 1389.22,1468.53L1423.67,1468.42L1381.32,1398.81C1388.33,1391.32 1399.49,1381.14 1402.25,1370.25C1408.05,1347.37 1397.91,1322.22 1374.75,1314.04C1354.79,1306.99 1330.58,1310.65 1310.59,1312.28ZM1350.23,1347.33C1350.54,1357.97 1350.35,1362.93 1350.03,1371.69C1349.89,1375.32 1361.73,1371.09 1363.13,1364.87C1363.39,1363.71 1363.52,1362.53 1363.58,1361.35C1363.84,1355.87 1363.21,1346.97 1356.09,1346.2C1355.09,1346.09 1354.06,1346.09 1353.07,1346.28C1352.08,1346.47 1350.2,1346.32 1350.23,1347.33Z" style="fill:rgb(255,203,27);"/>
        <g id="T1" serif:id="T" transform="matrix(1,0,0,1,0,1)">
            <path d="M1184.85,1318.98L1183.52,1457.38L1183.07,1465.04L1260.37,1465.04C1260.37,1465.04 1261.96,1462.01 1261.9,1460.37C1261.5,1450.65 1257.97,1406.72 1257.97,1406.72L1259.3,1319.39L1286.92,1319.4C1286.92,1319.4 1287.51,1318.98 1287.58,1317.97C1287.71,1315.88 1286.92,1307.67 1286.92,1307.67L1158.03,1307.71C1158.03,1307.71 1157.7,1316.24 1158.08,1318.11C1158.23,1318.83 1160.12,1318.89 1160.12,1318.89L1184.85,1318.98Z" style="fill:rgb(255,203,27);"/>
        </g>
        <path id="U" d="M878.329,1316.89L923.928,1316.4C923.928,1316.4 924.703,1356.44 924.449,1376.45C924.047,1408.22 923.42,1452.21 888.782,1467.49C884.555,1469.35 880.019,1470.54 875.473,1471.36C865.582,1473.15 852.642,1473.5 842.717,1471.67C838.111,1470.83 833.634,1469.26 829.334,1467.4C824.169,1465.18 813.875,1458.82 809.939,1454.27C791.252,1432.67 798.713,1395.18 798.865,1369.82C798.971,1351.95 798.801,1334.07 798.63,1316.2L846.425,1315.87C846.336,1330.78 846.247,1345.7 846.319,1360.61C846.375,1372.17 846.436,1383.74 846.81,1395.3C847.213,1407.78 843.492,1428.21 862.222,1427.28C878.326,1426.48 877.603,1410.09 878.466,1398.1C879.165,1388.38 879.498,1378.64 879.481,1368.9C879.452,1351.56 878.329,1316.89 878.329,1316.89Z" style="fill:rgb(255,203,27);"/>
        <path d="M1050.2,1302.08C1046.68,1302.11 1040.9,1294.79 1040.14,1291.36C1038.03,1281.88 1039.95,1268.22 1041.64,1260.89C1042.51,1257.12 1049.49,1251.93 1053.6,1251.99C1057.71,1252.04 1064.31,1255.62 1067.06,1259.94C1069.5,1263.77 1070.8,1267.73 1070.47,1279.64C1070.3,1285.75 1068.56,1290.68 1064.5,1294.8C1060.45,1298.92 1057.93,1302.02 1050.2,1302.08Z" style="fill:rgb(255,203,27);"/>
        <path d="M1093.29,1336.79C1088.94,1334.4 1085.28,1326.45 1086.73,1320.96C1088.55,1314.02 1098.72,1299.99 1103.73,1295.21C1106.9,1292.19 1112.8,1290.92 1116.15,1293.03C1119.5,1295.14 1123.64,1300.86 1123.16,1306.01C1122.49,1313.17 1117.97,1330.17 1112.8,1335.29C1107.93,1340.12 1097.63,1339.18 1093.29,1336.79Z" style="fill:rgb(255,203,27);"/>
        <path d="M974.24,1324.69C962.323,1330.9 954.462,1315.64 949.916,1307.93C945.37,1300.23 939.711,1284.8 949.082,1279.99C956.821,1276.02 967.981,1287.55 972.526,1295.25C977.072,1302.95 980.487,1321.44 974.24,1324.69Z" style="fill:rgb(255,203,27);"/>
        <path d="M1010.89,1298.38C1006.84,1300.03 996.776,1297.49 993.129,1290.26C989.482,1283.02 987.8,1261.32 989.598,1255.44C990.824,1251.44 997.048,1250.41 999.904,1252.36C1004.43,1255.46 1014.31,1269.07 1016.19,1276.64C1018.06,1284.21 1015.54,1296.49 1010.89,1298.38Z" style="fill:rgb(255,203,27);"/>
        <path d="M972.595,1470.74C985.505,1476.5 1017.58,1437.95 1039.63,1438.93C1061.68,1439.92 1091.12,1478.2 1103.77,1476.01C1116.42,1473.82 1118.65,1443.43 1115.85,1426.58C1112.35,1405.53 1096.78,1368.6 1083.9,1350.33C1073.02,1334.9 1052.77,1318.82 1037.88,1316.87C1022.99,1314.92 1005.52,1325.12 995.911,1337.24C983.691,1352.67 967.763,1386.37 963.877,1408.62C959.991,1430.87 959.686,1464.98 972.595,1470.74ZM1033.26,1407.42C1043.98,1406.99 1059.29,1417.88 1064.93,1413.88C1070.58,1409.87 1070.92,1382.6 1057.98,1366.87C1047.45,1354.07 1040.34,1352.68 1032.54,1352.92C1026.84,1353.1 1018.22,1354.56 1010.24,1365.74C1002.85,1376.09 1001.76,1383.63 999.515,1394.13C996.631,1407.58 999.53,1414.45 1002.34,1415.87C1008.31,1418.88 1022.54,1407.85 1033.26,1407.42Z" style="fill:rgb(255,203,27);"/>
    </g>
</svg>
